<svg width="25" height="25" viewBox="0 0 25 25" fill="none" xmlns="http://www.w3.org/2000/svg">
<path d="M11.7938 3.04487C11.925 2.77508 12.2 2.60425 12.5 2.60425C12.8011 2.60425 13.075 2.77508 13.2063 3.04487C14.2209 5.12612 15.9667 8.71154 15.9667 8.71154C15.9667 8.71154 19.9365 9.25737 22.2396 9.57508C22.6594 9.63237 22.9167 9.98758 22.9167 10.3532C22.9167 10.5511 22.8417 10.7522 22.6761 10.9115C20.999 12.5136 18.1115 15.2772 18.1115 15.2772C18.1115 15.2772 18.8167 19.2011 19.225 21.4772C19.3115 21.9584 18.9386 22.3959 18.4521 22.3959C18.325 22.3959 18.198 22.3657 18.0823 22.3032C16.0323 21.2115 12.5 19.3334 12.5 19.3334C12.5 19.3334 8.96775 21.2115 6.91775 22.3032C6.80212 22.3657 6.674 22.3959 6.54692 22.3959C6.06254 22.3959 5.68754 21.9574 5.77504 21.4772C6.18442 19.2011 6.88962 15.2772 6.88962 15.2772C6.88962 15.2772 4.00108 12.5136 2.32504 10.9115C2.15837 10.7522 2.08337 10.5511 2.08337 10.3542C2.08337 9.98758 2.34275 9.63133 2.7615 9.57508C5.06462 9.25737 9.03337 8.71154 9.03337 8.71154C9.03337 8.71154 10.7802 5.12612 11.7938 3.04487Z" fill="#FF543E"/>
</svg>
